<svg width="21" height="20" viewBox="0 0 21 20" fill="none" xmlns="http://www.w3.org/2000/svg">
<path d="M9.98839 4.60566L10.7503 5.50206L11.5123 4.60566C11.8927 4.15804 12.3404 3.81607 12.8618 3.57203C13.3816 3.32872 13.9243 3.20801 14.5003 3.20801C15.5569 3.20801 16.3878 3.55132 17.0641 4.22761C17.7403 4.90391 18.0837 5.73478 18.0837 6.79134C18.0837 7.31544 17.9958 7.82818 17.8176 8.33408C17.646 8.82114 17.3265 9.40207 16.8226 10.0804C16.3194 10.7577 15.6261 11.543 14.7307 12.4384C13.8307 13.3384 12.685 14.4159 11.2904 15.6724C11.29 15.6728 11.2896 15.6731 11.2893 15.6734L10.7503 16.1566L10.2114 15.6734C10.2111 15.6732 10.2108 15.6729 10.2105 15.6726C8.81575 14.416 7.67001 13.3385 6.76993 12.4384C5.87453 11.543 5.18122 10.7577 4.67807 10.0804C4.17414 9.40207 3.85467 8.82114 3.6831 8.33408C3.50488 7.82818 3.41699 7.31544 3.41699 6.79134C3.41699 5.73478 3.76031 4.90391 4.4366 4.22761C5.11289 3.55132 5.94376 3.20801 7.00033 3.20801C7.57634 3.20801 8.11909 3.32872 8.63889 3.57203C9.16025 3.81607 9.60791 4.15804 9.98839 4.60566Z" fill="white" stroke="white" stroke-width="2"/>
</svg>
