<svg width="24" height="24" viewBox="0 0 24 24" fill="none" xmlns="http://www.w3.org/2000/svg">
<g clip-path="url(#clip0_254_2809)">
<path fill-rule="evenodd" clip-rule="evenodd" d="M6.95902 2.85406C6.83676 2.89308 6.62976 3.01735 6.49902 3.13017C6.0091 3.55302 0.0580142 9.00486 -0.0685582 9.14684C-0.305046 9.41207 -0.396562 9.67226 -0.396562 10.0794C-0.396562 10.5234 -0.293522 10.7723 -0.000914103 11.035C0.287869 11.2942 0.539706 11.3918 0.92291 11.393L1.24975 11.3941V15.7V20.006H0.523437C-0.138333 20.006 -0.211497 20.0145 -0.29972 20.1022C-0.436219 20.2378 -0.433313 20.5834 -0.294636 20.7082C-0.194985 20.7978 0.0779149 20.7998 11.9992 20.7998C23.9205 20.7998 24.1934 20.7978 24.293 20.7082C24.4395 20.5765 24.434 20.2516 24.2829 20.1106C24.1879 20.0219 24.1141 20.006 23.7987 20.006H23.4266V15.1278V10.2496L23.8187 10.2319C24.2838 10.211 24.3956 10.1249 24.3941 9.78907C24.3928 9.48915 23.0712 5.10205 22.9442 4.97576L22.8428 4.87506L16.5326 4.86251L10.2223 4.84995L9.21108 3.92872C8.57192 3.34643 8.12054 2.97261 7.98409 2.91266C7.7033 2.78926 7.24436 2.76299 6.95902 2.85406ZM7.74862 3.73243C8.19676 4.07522 14.2748 9.73793 14.3257 9.86013C14.5011 10.2809 14.0624 10.6961 13.6384 10.5106C13.5491 10.4716 12.1474 9.21463 10.5236 7.71746C7.71196 5.12524 7.56239 4.99534 7.38943 4.99534C7.22083 4.99534 7.13745 5.06015 6.22617 5.8992C5.68623 6.39633 4.3225 7.65203 3.19564 8.68964L1.14681 10.5762H0.914823C0.536026 10.5762 0.30898 10.2882 0.409793 9.93552C0.4433 9.81818 1.21121 9.08184 3.69637 6.78406C5.47995 5.13496 7.00458 3.74402 7.08448 3.69307C7.29491 3.55894 7.54085 3.57352 7.74862 3.73243ZM22.4292 5.92148C22.4704 6.06037 22.72 6.89933 22.9841 7.78578L23.4642 9.3975L19.269 9.41039L15.0739 9.42328L14.937 9.25514C14.8617 9.16267 13.9738 8.32611 12.9638 7.39613C11.9539 6.46614 11.1276 5.69709 11.1276 5.68708C11.1276 5.67707 13.6537 5.66889 16.741 5.66889H22.3544L22.4292 5.92148ZM10.1048 8.39963L12.7255 10.8176V15.4118V20.006H11.9759H11.2262L11.2132 16.1691L11.2003 12.3323L11.0636 12.0558C10.9496 11.825 10.7193 11.5825 9.67079 10.5884C8.29989 9.28877 8.06626 9.11985 7.56297 9.06423C7.22742 9.02714 6.81506 9.12023 6.53974 9.29517C6.33013 9.42838 4.0419 11.5752 3.87179 11.7982C3.80928 11.8803 3.71123 12.0448 3.6539 12.1639C3.55042 12.379 3.54965 12.4044 3.53624 16.1691L3.52273 19.9579H2.79782H2.07291V15.4148V10.8717L4.74037 8.41204C6.20743 7.05925 7.42497 5.95896 7.44594 5.96699C7.46691 5.97502 8.66339 7.06969 10.1048 8.39963ZM7.77467 10.0048C7.88788 10.0839 10.2561 12.3102 10.2561 12.3374C10.2561 12.3478 8.95958 12.3563 7.375 12.3563C5.79043 12.3563 4.49589 12.3401 4.49822 12.3202C4.50359 12.2748 6.89452 10.0388 7.00202 9.97868C7.22277 9.85518 7.57794 9.86716 7.77467 10.0048ZM22.555 13.2825C22.5551 14.9561 22.5695 17.1536 22.5871 18.1657L22.6191 20.006H18.0839H13.5487V15.7V11.3941L13.8513 11.3936C14.4576 11.3927 14.9556 11.0234 15.1065 10.4629L15.1667 10.2394H18.8608H22.555L22.555 13.2825ZM14.9197 12.4042C14.8616 12.4278 14.7907 12.4902 14.7623 12.5429C14.7274 12.6078 14.7108 13.6158 14.7108 15.6654C14.7108 18.6813 14.7111 18.6924 14.8127 18.7837C14.9108 18.8719 15.0355 18.8754 18.1002 18.8754C21.165 18.8754 21.2897 18.8719 21.3878 18.7837C21.4894 18.6924 21.4897 18.6819 21.4897 15.6279C21.4897 12.5741 21.4894 12.5634 21.3878 12.472C21.2901 12.3841 21.1586 12.38 18.1557 12.3709C16.4092 12.3656 14.9787 12.3803 14.9197 12.4042ZM10.4497 16.5901V20.006H7.39921H4.34869V16.5901V13.1742H7.39921H10.4497V16.5901ZM17.6645 14.2086V15.243H16.575H15.4855V14.2086V13.1742H16.575H17.6645V14.2086ZM20.6666 14.2086V15.243H19.5771H18.4876V14.2086V13.1742H19.5771H20.6666V14.2086ZM9.06756 15.8422C8.95343 15.9556 8.94868 15.9855 8.94868 16.5901C8.94868 17.1947 8.95343 17.2246 9.06756 17.338C9.14958 17.4195 9.24023 17.4561 9.36026 17.4561C9.4803 17.4561 9.57094 17.4195 9.65297 17.338C9.7671 17.2246 9.77184 17.1947 9.77184 16.5901C9.77184 15.9855 9.7671 15.9556 9.65297 15.8422C9.49129 15.6815 9.22924 15.6815 9.06756 15.8422ZM17.6645 17.0471V18.0815H16.575H15.4855V17.0471V16.0128H16.575H17.6645V17.0471ZM20.6666 17.0471V18.0815H19.5771H18.4876V17.0471V16.0128H19.5771H20.6666V17.0471Z" fill="#0B1547"/>
</g>
<defs>
<clipPath id="clip0_254_2809">
<rect width="24" height="24" fill="white"/>
</clipPath>
</defs>
</svg>
