<svg width="24" height="25" viewBox="0 0 24 25" fill="none" xmlns="http://www.w3.org/2000/svg">
<path d="M12 21.5004L10.55 20.2004C8.86667 18.6837 7.475 17.3754 6.375 16.2754C5.275 15.1754 4.4 14.1879 3.75 13.3129C3.1 12.4379 2.64583 11.6337 2.3875 10.9004C2.12917 10.1671 2 9.41706 2 8.65039C2 7.08372 2.525 5.77539 3.575 4.72539C4.625 3.67539 5.93333 3.15039 7.5 3.15039C8.36667 3.15039 9.19167 3.33372 9.975 3.70039C10.7583 4.06706 11.4333 4.58372 12 5.25039C12.5667 4.58372 13.2417 4.06706 14.025 3.70039C14.8083 3.33372 15.6333 3.15039 16.5 3.15039C18.0667 3.15039 19.375 3.67539 20.425 4.72539C21.475 5.77539 22 7.08372 22 8.65039C22 9.41706 21.8708 10.1671 21.6125 10.9004C21.3542 11.6337 20.9 12.4379 20.25 13.3129C19.6 14.1879 18.725 15.1754 17.625 16.2754C16.525 17.3754 15.1333 18.6837 13.45 20.2004L12 21.5004Z" fill="white"/>
<path d="M12 21.5004L10.55 20.2004C8.86667 18.6837 7.475 17.3754 6.375 16.2754C5.275 15.1754 4.4 14.1879 3.75 13.3129C3.1 12.4379 2.64583 11.6337 2.3875 10.9004C2.12917 10.1671 2 9.41706 2 8.65039C2 7.08372 2.525 5.77539 3.575 4.72539C4.625 3.67539 5.93333 3.15039 7.5 3.15039C8.36667 3.15039 9.19167 3.33372 9.975 3.70039C10.7583 4.06706 11.4333 4.58372 12 5.25039C12.5667 4.58372 13.2417 4.06706 14.025 3.70039C14.8083 3.33372 15.6333 3.15039 16.5 3.15039C18.0667 3.15039 19.375 3.67539 20.425 4.72539C21.475 5.77539 22 7.08372 22 8.65039C22 9.41706 21.8708 10.1671 21.6125 10.9004C21.3542 11.6337 20.9 12.4379 20.25 13.3129C19.6 14.1879 18.725 15.1754 17.625 16.2754C16.525 17.3754 15.1333 18.6837 13.45 20.2004L12 21.5004ZM12 18.8004C13.6 17.3671 14.9167 16.1379 15.95 15.1129C16.9833 14.0879 17.8 13.1962 18.4 12.4379C19 11.6796 19.4167 11.0046 19.65 10.4129C19.8833 9.82122 20 9.23372 20 8.65039C20 7.65039 19.6667 6.81706 19 6.15039C18.3333 5.48372 17.5 5.15039 16.5 5.15039C15.7167 5.15039 14.9917 5.37122 14.325 5.81289C13.6583 6.25456 13.2 6.81706 12.95 7.50039H11.05C10.8 6.81706 10.3417 6.25456 9.675 5.81289C9.00833 5.37122 8.28333 5.15039 7.5 5.15039C6.5 5.15039 5.66667 5.48372 5 6.15039C4.33333 6.81706 4 7.65039 4 8.65039C4 9.23372 4.11667 9.82122 4.35 10.4129C4.58333 11.0046 5 11.6796 5.6 12.4379C6.2 13.1962 7.01667 14.0879 8.05 15.1129C9.08333 16.1379 10.4 17.3671 12 18.8004Z" fill="#0B1547"/>
</svg>
