<svg width="25" height="24" viewBox="0 0 25 24" fill="none" xmlns="http://www.w3.org/2000/svg">
<g clip-path="url(#clip0_254_2785)">
<path fill-rule="evenodd" clip-rule="evenodd" d="M3.04521 1.2916L2.93259 1.38297L2.91881 2.96759L2.90503 4.55216L3.0463 4.69384C3.17804 4.82591 3.21205 4.83552 3.54898 4.83552H3.91038V5.71666V6.59775L3.75536 6.63123C3.67013 6.6496 3.46861 6.72422 3.30763 6.79697C2.56185 7.13405 1.90005 7.77062 1.54896 8.48841C1.1392 9.32625 1.17106 8.78205 1.15532 15.2106C1.14311 20.211 1.1504 20.953 1.21394 21.1723C1.30766 21.4956 1.65237 21.8865 1.97771 22.0384L2.21714 22.1502L8.2091 22.1507L14.201 22.1512L14.4625 22.2671C14.7912 22.4129 15.4035 22.5974 15.93 22.7091C16.5439 22.8395 17.9777 22.8279 18.6248 22.6873C21.5649 22.0486 23.6779 19.9012 24.2593 16.9613C24.3903 16.2988 24.3781 14.926 24.2352 14.2587C23.9194 12.7836 23.3029 11.6452 22.2536 10.5991C21.242 9.59082 20.1982 9.0117 18.7918 8.67845C17.9976 8.49032 16.4224 8.46989 15.8346 8.64013C15.7859 8.65424 15.7137 8.56546 15.6087 8.36256C15.4134 7.98501 15.1016 7.60249 14.7499 7.30869C14.4484 7.0569 13.7343 6.67519 13.4727 6.62597L13.3066 6.59469V5.71513V4.83552H13.668C14.005 4.83552 14.039 4.82591 14.1707 4.69384L14.312 4.55216L14.2982 2.97682C14.2853 1.50566 14.2784 1.39478 14.1936 1.30084L14.1027 1.2002H8.63026C3.31422 1.2002 3.15458 1.20283 3.04521 1.2916ZM13.4974 2.99394V4.02236H8.60851H3.71959V2.99394V1.96553H8.60851H13.4974V2.99394ZM12.4958 5.64869V6.46185H8.60851H4.72122V5.64869V4.83552H8.60851H12.4958V5.64869ZM13.2725 7.42589C13.9151 7.64568 14.4401 8.05241 14.8057 8.61373L14.9766 8.87624L14.7297 8.96042C13.7554 9.29253 12.5944 10.1009 11.8441 10.9696L11.5657 11.292L6.76026 11.2925L1.95481 11.293L1.95562 10.5875C1.95662 9.75383 2.02736 9.36256 2.26403 8.88226C2.65634 8.08594 3.47305 7.47654 4.34719 7.32783C4.48837 7.30377 6.45195 7.2877 8.7516 7.29171L12.9012 7.29894L13.2725 7.42589ZM18.2489 9.40518C21.4069 9.95172 23.6937 12.759 23.5469 15.9089C23.35 20.1336 19.2332 23.0075 15.2645 21.6909C12.6656 20.8287 10.9186 18.421 10.9128 15.6937C10.9101 14.3839 11.2534 13.2347 11.9774 12.1301C12.295 11.6454 13.1713 10.7595 13.6497 10.4392C14.4815 9.88251 15.4061 9.5218 16.4069 9.36371C16.7299 9.31272 17.8618 9.33816 18.2489 9.40518ZM10.8231 12.4954C10.5626 13.0151 10.2799 13.8861 10.1809 14.4739C10.0995 14.9575 10.0681 16.2483 10.1328 16.4525L10.1651 16.5547H6.05993H1.95481V14.3304V12.1062H6.48653H11.0182L10.8231 12.4954ZM13.6552 12.4422C13.516 12.4975 13.4326 12.6334 13.2323 13.1314C12.7649 14.2942 12.5995 15.6042 12.7883 16.6503C13.0147 17.9048 13.8467 19.0941 14.8745 19.6324C15.5438 19.9828 15.7122 20.0123 17.1482 20.031C18.3134 20.0461 18.4748 20.0384 18.8176 19.9521C19.2948 19.8319 19.8773 19.541 20.2555 19.2341C20.885 18.7232 21.4821 17.7871 21.7049 16.9613C21.8346 16.4808 21.8843 15.2747 21.7991 14.6785C21.6747 13.8078 21.3852 12.8823 21.189 12.7275C21.0433 12.6126 20.9008 12.6094 20.3145 12.7079C19.4394 12.855 18.4764 13.2337 17.6853 13.7418L17.3181 13.9777L16.9699 13.7181C16.7783 13.5752 16.4693 13.3689 16.2832 13.2596C15.4714 12.7826 13.9723 12.3164 13.6552 12.4422ZM14.7191 13.4679C15.6737 13.7883 16.3224 14.1712 16.9077 14.7599C17.3602 15.215 17.5963 15.6025 17.7972 16.2198C17.9976 16.8357 18.0071 17.4529 17.8245 17.9897C17.7095 18.3277 17.4888 18.777 17.4154 18.8225C17.3971 18.8338 16.9773 18.0538 16.4825 17.089C15.9877 16.1243 15.5645 15.3146 15.542 15.2897C15.4898 15.2319 14.8329 15.5458 14.8329 15.6286C14.8329 15.6615 15.2402 16.4807 15.7378 17.4489L16.6428 19.2094L16.4594 19.2238C15.9772 19.2617 15.1798 18.9347 14.7146 18.5083C13.5187 17.4122 13.2257 15.747 13.8803 13.7671C14.0065 13.3856 14.0513 13.302 14.1294 13.302C14.1818 13.302 14.4471 13.3767 14.7191 13.4679ZM20.7954 13.888C21.1484 15.1993 21.1005 16.5217 20.6687 17.3841C20.3211 18.0784 19.7662 18.6511 19.1588 18.9422C18.7962 19.116 18.248 19.2779 18.1966 19.2264C18.1844 19.2142 18.2601 19.04 18.3649 18.8395C18.6542 18.2859 18.758 17.839 18.7566 17.1526C18.7557 16.7245 18.7301 16.484 18.6559 16.2063C18.5433 15.7848 18.2529 15.1357 18.0351 14.8181L17.8888 14.6049L18.1427 14.4358C18.6821 14.0767 19.3211 13.7941 20.0033 13.6131C20.6909 13.4306 20.6704 13.4235 20.7954 13.888ZM10.4355 17.8581C10.5211 18.1278 10.6763 18.5288 10.7803 18.7493C10.8844 18.9697 10.9695 19.158 10.9695 19.1678C10.9695 19.1775 9.75681 19.1855 8.27463 19.1855H5.57977V19.5682V19.9508L8.54889 19.952L11.518 19.9531L11.6611 20.1484C11.7398 20.2558 12.0474 20.5786 12.3447 20.8658L12.8852 21.3879L7.64656 21.3749L2.40793 21.3619L2.24753 21.2472C1.96115 21.0423 1.95481 20.9956 1.95481 19.0914V17.3678H6.1174H10.2799L10.4355 17.8581Z" fill="#0B1547"/>
</g>
<defs>
<clipPath id="clip0_254_2785">
<rect width="24" height="24" fill="white" transform="translate(0.75)"/>
</clipPath>
</defs>
</svg>
