<svg width="25" height="24" viewBox="0 0 25 24" fill="none" xmlns="http://www.w3.org/2000/svg">
<path fill-rule="evenodd" clip-rule="evenodd" d="M8.81587 0.480709C8.72757 0.524208 8.59707 0.636096 8.52588 0.729376C8.40355 0.889547 8.39548 0.933287 8.3805 1.51539C8.35846 2.37275 8.30669 2.33268 9.4355 2.33268H10.3055V3.10599C10.3055 3.84706 10.3015 3.8793 10.2088 3.8793C10.1557 3.8793 10.0687 3.9228 10.0155 3.97596C9.92805 4.06339 9.91882 4.13705 9.91882 4.74584V5.41905L9.65237 5.47439C8.78402 5.65462 8.01602 6.36031 7.7094 7.25971C7.6037 7.56986 7.60133 7.62549 7.60012 9.84135C7.59891 11.9786 7.59413 12.1041 7.51428 12.072C7.46774 12.0533 7.27929 12.0185 7.09548 11.9947C6.68731 11.9418 6.55551 11.8613 6.48987 11.6249C6.41085 11.3403 6.42395 11.2257 6.53555 11.2257C6.58871 11.2257 6.67571 11.1822 6.72888 11.1291C6.81911 11.0388 6.82554 10.968 6.82554 10.0658C6.82554 9.16355 6.81911 9.09269 6.72888 9.00246C6.63579 8.90937 6.56778 8.90579 4.89224 8.90579C3.2167 8.90579 3.14869 8.90937 3.0556 9.00246C2.96537 9.09269 2.95894 9.16355 2.95894 10.0658C2.95894 10.968 2.96537 11.0388 3.0556 11.1291C3.10877 11.1822 3.19872 11.2257 3.25551 11.2257C3.35 11.2257 3.35623 11.2441 3.32907 11.4421C3.27465 11.8393 3.16058 11.9341 2.66136 11.9968C1.99567 12.0804 1.45362 12.4667 1.17837 13.0539L1.0498 13.3281V17.6055V21.8829L1.17837 22.1571C1.35841 22.5411 1.65541 22.8445 2.03366 23.0307L2.3527 23.1878L4.86701 23.1836C6.2499 23.1813 7.45749 23.1778 7.55053 23.1758C7.64357 23.1738 10.8636 23.1813 14.7062 23.1924C20.5395 23.2093 21.7074 23.2018 21.7824 23.147C21.8435 23.1023 21.9288 22.8593 22.0497 22.3855L22.2272 21.6895L22.5777 21.6654C23.076 21.631 23.0653 21.6567 23.0653 20.4962C23.0653 19.2848 23.1049 19.3454 22.3138 19.3454H21.7557L21.9101 19.121C22.4073 18.3983 22.4276 17.2808 21.9567 16.547C21.7725 16.2599 21.4247 15.9273 21.1312 15.7576C20.6645 15.4876 20.5749 15.4789 18.2474 15.4789H16.1054L16.1041 11.5278L16.1029 7.57667L15.9949 7.25971C15.686 6.35383 14.9238 5.65539 14.045 5.47294L13.7854 5.41905V4.74584C13.7854 4.13705 13.7762 4.06339 13.6888 3.97596C13.6356 3.9228 13.5486 3.8793 13.4954 3.8793C13.4007 3.8793 13.3988 3.84706 13.3988 2.23602C13.3988 0.657168 13.395 0.588972 13.3021 0.496079C13.2083 0.402315 13.1418 0.399464 11.0909 0.400527C9.23211 0.401494 8.95691 0.41116 8.81587 0.480709ZM10.3055 1.36605V1.55938H9.72549H9.1455V1.42405C9.1455 1.20042 9.21587 1.17272 9.78349 1.17272H10.3055V1.36605ZM12.6254 2.52601V3.8793H11.8521H11.0788V2.52601V1.17272H11.8521H12.6254V2.52601ZM13.0121 5.03926V5.42591H11.8521H10.6921V5.03926V4.6526H11.8521H13.0121V5.03926ZM13.9993 6.30937C14.5358 6.48699 15.0407 6.98833 15.2238 7.52525C15.3012 7.75221 15.3083 8.30363 15.3209 15.1043L15.3345 22.4387H11.9043H8.47421L8.60442 22.1608L8.73468 21.8829L8.74826 19.8408L8.76184 17.7988H10.7903C12.7543 17.7988 12.8219 17.7957 12.9154 17.7022C13.0102 17.6074 13.0121 17.5411 13.0121 14.3189C13.0121 11.0968 13.0102 11.0305 12.9154 10.9357C12.8216 10.8419 12.7543 10.8391 10.5955 10.8391H8.37218L8.37315 9.52202C8.37368 8.79763 8.39582 8.05274 8.4224 7.86666C8.54284 7.02328 9.17151 6.3764 9.99263 6.25103C10.1514 6.22677 11.0643 6.21222 12.0213 6.21875C13.4782 6.22861 13.8 6.24335 13.9993 6.30937ZM17.8074 6.30241C17.4578 6.43672 17.1111 6.79051 16.9749 7.15189C16.8339 7.52602 16.8546 8.14684 17.0188 8.46419C17.4953 9.3852 18.8016 9.58819 19.5347 8.85514C20.307 8.0828 20.0285 6.67379 19.0296 6.30004C18.6729 6.1666 18.1583 6.16761 17.8074 6.30241ZM18.8004 7.11728C19.4291 7.5006 19.1603 8.47047 18.4253 8.47047C17.6904 8.47047 17.4216 7.5006 18.0503 7.11728C18.2571 6.99118 18.5936 6.99118 18.8004 7.11728ZM6.05222 10.0658V10.4524H4.89224H3.73226V10.0658V9.6791H4.89224H6.05222V10.0658ZM21.7845 9.77093C21.3647 9.96571 21.1313 10.3522 21.133 10.8496C21.1354 11.5367 21.6016 11.999 22.292 11.999C22.9877 11.999 23.4498 11.5362 23.4498 10.8391C23.4498 10.3353 23.1965 9.93415 22.7647 9.75406C22.5166 9.65054 22.0257 9.659 21.7845 9.77093ZM22.5336 10.5974C22.5873 10.6511 22.6303 10.7585 22.6303 10.8391C22.6303 10.9196 22.5873 11.027 22.5336 11.0807C22.4799 11.1344 22.3725 11.1774 22.292 11.1774C22.2114 11.1774 22.104 11.1344 22.0503 11.0807C21.9966 11.027 21.9536 10.9196 21.9536 10.8391C21.9536 10.7585 21.9966 10.6511 22.0503 10.5974C22.104 10.5437 22.2114 10.5007 22.292 10.5007C22.3725 10.5007 22.4799 10.5437 22.5336 10.5974ZM5.66556 11.498C5.66556 11.866 5.74541 12.1069 5.94434 12.3394C6.16788 12.6006 6.41326 12.7167 6.91206 12.7974C7.42196 12.88 7.65894 13.028 7.83787 13.3756L7.96136 13.6154L7.97513 17.4271C7.98407 19.9089 7.97141 21.3343 7.93879 21.5125C7.87329 21.8704 7.68344 22.136 7.38233 22.291L7.14256 22.4145L5.07692 22.4294C2.83197 22.4456 2.57059 22.4251 2.26078 22.2086C1.94632 21.9888 1.83888 21.7154 1.81003 21.0616L1.78547 20.5054H3.62888C5.4078 20.5054 5.47561 20.502 5.5689 20.4087C5.66343 20.3142 5.66556 20.2477 5.66556 17.4122C5.66556 14.5767 5.66343 14.5101 5.5689 14.4156C5.47561 14.3223 5.4078 14.3189 3.62849 14.3189H1.7848L1.81612 13.9444C1.87697 13.2174 2.1571 12.9132 2.87242 12.7974C3.10186 12.7603 3.37286 12.6871 3.47465 12.6347C3.8803 12.4261 4.11612 12.0203 4.11786 11.5278L4.11892 11.2257H4.89224H5.66556V11.498ZM12.2388 14.3189V17.0255H10.5009H8.7631L8.74889 15.1527L8.73468 13.2798L8.55343 12.9519C8.37644 12.6317 8.37218 12.6122 8.37218 12.1182V11.6124H10.3055H12.2388V14.3189ZM17.8074 11.7156C17.4578 11.8499 17.1111 12.2037 16.9749 12.565C16.8339 12.9392 16.8546 13.56 17.0188 13.8773C17.2882 14.3981 17.8104 14.7056 18.4253 14.7056C19.3355 14.7056 19.972 14.0692 19.972 13.159C19.972 12.241 19.3325 11.6082 18.4114 11.6149C18.1824 11.6165 17.9752 11.6511 17.8074 11.7156ZM18.8004 12.5304C19.4291 12.9137 19.1603 13.8836 18.4253 13.8836C18.013 13.8836 17.7007 13.5714 17.7007 13.159C17.7007 12.7466 18.013 12.4343 18.4253 12.4343C18.5573 12.4343 18.7048 12.4721 18.8004 12.5304ZM4.89224 17.4122V19.7321H3.3456H1.79896V17.4122V15.0923H3.3456H4.89224V17.4122ZM20.1591 16.3029C20.693 16.3895 21.0572 16.6377 21.3037 17.0826C21.4333 17.3166 21.4461 17.3809 21.4461 17.7988C21.4461 18.2176 21.4335 18.2808 21.3025 18.5172C21.1578 18.7786 20.8966 19.0272 20.6188 19.1682C20.3336 19.3129 19.8589 19.3447 17.9783 19.3451L16.1054 19.3454V17.7988V16.2522L17.9783 16.2526C19.0348 16.2528 19.9854 16.2747 20.1591 16.3029ZM19.2273 16.7803C18.9828 16.9746 18.6903 17.0255 17.8188 17.0255C17.1365 17.0255 17.0637 17.0339 16.9754 17.1222C16.8424 17.2551 16.8442 17.571 16.9787 17.7055C17.0747 17.8015 17.1208 17.8049 18.1266 17.7901L19.1745 17.7747L19.4797 17.6092C19.8549 17.4058 19.972 17.2654 19.972 17.019C19.972 16.6318 19.5746 16.5044 19.2273 16.7803ZM13.8821 17.1222C13.8015 17.2028 13.7854 17.2833 13.7854 17.6055C13.7854 18.0718 13.8612 18.1855 14.1721 18.1855C14.483 18.1855 14.5587 18.0718 14.5587 17.6055C14.5587 17.1392 14.483 17.0255 14.1721 17.0255C14.0432 17.0255 13.9465 17.0578 13.8821 17.1222ZM13.8821 19.0555C13.7935 19.144 13.7854 19.2165 13.7854 19.9254C13.7854 20.6343 13.7935 20.7068 13.8821 20.7954C13.9465 20.8598 14.0432 20.8921 14.1721 20.8921C14.301 20.8921 14.3977 20.8598 14.4621 20.7954C14.5507 20.7068 14.5587 20.6343 14.5587 19.9254C14.5587 19.2165 14.5507 19.144 14.4621 19.0555C14.3977 18.991 14.301 18.9588 14.1721 18.9588C14.0432 18.9588 13.9465 18.991 13.8821 19.0555ZM22.292 20.5054V20.8921H19.1987H16.1054V20.5054V20.1187H19.1987H22.292V20.5054ZM21.3725 21.7016C21.3719 21.7216 21.3325 21.8901 21.2849 22.0762L21.1983 22.4145L18.6518 22.427L16.1054 22.4395V22.0525V21.6654H18.7395C20.1883 21.6654 21.3731 21.6817 21.3725 21.7016Z" fill="#0B1547"/>
</svg>
