<svg width="200" height="73" viewBox="0 0 200 73" fill="none" xmlns="http://www.w3.org/2000/svg">
<g clip-path="url(#clip0_254_2733)">
<path d="M13.3293 59.2447C12.6701 59.2884 12.0085 59.2148 11.3746 59.027C11.1466 58.9429 10.9491 58.7912 10.8077 58.5916H10.8468L9.68051 56.2891C9.22441 55.3655 8.67059 54.3099 8.03205 53.0432C7.39352 51.7765 6.72893 50.5164 6.07737 49.1771C5.42581 47.8379 4.72864 46.5382 4.07707 45.2187C3.42551 43.8992 2.78047 42.7447 2.25922 41.6957L0.988671 39.1623C0.802856 38.8286 0.639592 38.4826 0.5 38.1265C0.5 38.054 0.617281 37.9748 0.845328 37.9022C1.07337 37.8297 1.36658 37.7571 1.71842 37.6845C2.08464 37.6106 2.45434 37.5555 2.82608 37.5196C3.2105 37.5196 3.57537 37.4668 3.91418 37.4668C4.253 37.4668 4.61135 37.4668 4.98926 37.5064C5.36717 37.546 5.70598 37.5658 6.02524 37.6119C6.34451 37.6581 6.60513 37.7175 6.82015 37.7769C6.97149 37.7999 7.11236 37.8689 7.22412 37.9748L16.1375 54.8707L18.027 51.0376C17.3038 49.5796 16.548 48.0952 15.7726 46.5844C14.9973 45.0736 14.3066 43.7079 13.6876 42.4676L12.163 39.3998C11.9436 38.9871 11.7478 38.562 11.5766 38.1265C11.5766 38.054 11.6873 37.9748 11.9154 37.9022C12.1434 37.8297 12.4366 37.7571 12.7885 37.6845C13.1403 37.6119 13.5117 37.5592 13.8961 37.5196C14.2805 37.48 14.6519 37.4668 14.9907 37.4668C15.3295 37.4668 15.6879 37.4668 16.0593 37.5064C16.4307 37.546 16.7825 37.5658 17.0953 37.6119C17.408 37.6581 17.6752 37.7175 17.8967 37.7769C18.0462 37.7996 18.1851 37.8687 18.2942 37.9748L21.552 44.1433C22.0341 43.2197 22.5032 42.3093 22.9463 41.4054C23.3894 40.5016 23.8259 39.6307 24.2494 38.7665C24.3314 38.6851 24.3938 38.5858 24.4319 38.4762C24.484 38.3508 24.5361 38.2321 24.5948 38.1133C24.6576 37.9913 24.739 37.88 24.8358 37.7835C24.9594 37.688 25.1053 37.6267 25.2593 37.6053C25.8197 37.6053 26.1259 37.6515 26.1846 37.7505C26.2535 37.8726 26.2853 38.0126 26.2758 38.1529C26.1935 38.3966 26.0911 38.6327 25.9696 38.8588C25.7611 39.2877 25.4874 39.8485 25.1356 40.5412C24.7837 41.2339 24.3732 42.0388 23.8976 42.9624C23.4219 43.886 22.9202 44.8625 22.412 45.8587L27.1749 54.8707L29.1296 51.0178C29.7812 49.6983 30.4979 48.2997 31.2016 46.9142L33.2931 42.7777C33.9838 41.3988 34.6418 40.0728 35.2478 38.7797C35.3254 38.6949 35.3872 38.5965 35.4302 38.4894C35.4779 38.3655 35.5322 38.2443 35.5931 38.1265C35.6517 38.0035 35.731 37.8919 35.8277 37.7967C35.9623 37.6794 36.1274 37.6038 36.3033 37.579C36.8571 37.579 37.1699 37.6251 37.2285 37.7241C37.2945 37.8474 37.326 37.9865 37.3198 38.1265C37.1913 38.4649 37.0389 38.7934 36.8637 39.1095L35.6843 41.478C35.1957 42.4544 34.6484 43.5562 34.0294 44.7767C33.4104 45.9972 32.7784 47.2639 32.1203 48.5504C31.4622 49.8369 30.8172 51.097 30.1656 52.3241C29.514 53.5512 28.9732 54.653 28.4911 55.6228C28.25 56.0846 27.9829 56.5794 27.6897 57.1006C27.3965 57.6218 27.1489 58.1166 26.9273 58.5784C26.7656 58.7986 26.5365 58.9586 26.2758 59.0336C25.6386 59.2033 24.9789 59.2701 24.3211 59.2315C23.662 59.2747 23.0005 59.201 22.3664 59.0138C22.1401 58.9301 21.9445 58.7781 21.8061 58.5784L20.6984 56.2891L18.9262 52.7793L17.4732 55.6228C17.2256 56.0846 16.965 56.5794 16.6718 57.1006C16.3786 57.6218 16.1245 58.1166 15.9094 58.5784C15.7463 58.7972 15.5178 58.9569 15.2579 59.0336C14.6299 59.2058 13.9791 59.277 13.3293 59.2447Z" fill="#0B1547"/>
<path d="M43.6728 48.4843C43.6758 49.8252 43.8712 51.1586 44.2526 52.4427C44.5774 53.5204 45.0941 54.5288 45.7773 55.4181C46.4072 56.2212 47.2094 56.8687 48.1229 57.3116C49.0727 57.7611 50.1109 57.9867 51.1592 57.9713C51.8093 57.9706 52.4547 57.8591 53.0683 57.6415C53.6731 57.4267 54.2557 57.1527 54.8079 56.8234C55.3367 56.5043 55.8478 56.1564 56.3391 55.781L57.5901 54.798L57.9876 54.4681C58.1262 54.36 58.2799 54.2733 58.4437 54.2108C58.6692 54.1267 58.9029 54.067 59.1408 54.0327C59.507 53.9731 59.8777 53.9466 60.2485 53.9535C60.8886 53.9457 61.528 54.001 62.1576 54.1185C62.6788 54.2306 62.9655 54.356 63.0111 54.5011C62.9655 54.4285 62.8352 54.5011 62.6267 54.6858L61.923 55.3456C61.255 56.0205 60.5166 56.62 59.7207 57.1335C58.9387 57.6331 58.1038 58.0425 57.2317 58.354C56.2909 58.6955 55.3167 58.9343 54.3258 59.0665C53.1809 59.2182 52.0271 59.2909 50.8725 59.2842C49.0399 59.3227 47.2127 59.0689 45.458 58.5321C43.9621 58.0678 42.5731 57.3051 41.3727 56.289C40.2508 55.3411 39.3591 54.1448 38.7665 52.7924C38.1594 51.3637 37.8552 49.8218 37.8739 48.2666C37.8651 46.7427 38.2088 45.238 38.8773 43.8727C39.5257 42.524 40.4548 41.3334 41.6008 40.3827C42.8379 39.3702 44.2495 38.5985 45.7643 38.1066C47.4588 37.544 49.2326 37.2654 51.0159 37.2819C54.1909 37.2849 57.2762 38.3494 59.7924 40.3101C60.9232 41.1874 61.8673 42.287 62.568 43.5429C63.2354 44.7527 63.5853 46.1155 63.5845 47.5013C63.5845 48.1346 62.5203 48.4513 60.3918 48.4513L43.6728 48.4843ZM57.9159 47.1648C57.7848 46.0025 57.5044 44.8626 57.0819 43.7738C56.7093 42.7922 56.1883 41.8753 55.5377 41.0556C54.952 40.3169 54.2223 39.7083 53.3941 39.2678C52.5917 38.8351 51.6968 38.6086 50.7878 38.608C49.8991 38.605 49.0243 38.8321 48.2467 39.2678C47.4227 39.7289 46.6965 40.3499 46.1096 41.0952C45.4504 41.9087 44.9166 42.8184 44.5263 43.7936C44.0936 44.862 43.8065 45.985 43.6728 47.1318L57.9159 47.1648Z" fill="#0B1547"/>
<path d="M67.6564 0.765466C67.6564 0.574142 67.9236 0.396013 68.4579 0.237676C69.1451 0.0600954 69.8534 -0.0198389 70.5624 0.000169982C71.3141 -0.0540845 72.0687 0.051538 72.7777 0.310247C73.1687 0.514766 73.3641 0.719284 73.3641 0.910608V58.222C73.3641 58.42 73.0644 58.5915 72.4715 58.7366C71.7982 58.8906 71.1093 58.9637 70.4191 58.9544C69.8587 58.9544 69.4026 58.9544 69.0378 58.9016C68.7498 58.8768 68.4643 58.8283 68.1842 58.7564C68.0279 58.7206 67.884 58.6432 67.7672 58.5321C67.6927 58.4467 67.6531 58.3359 67.6564 58.222V0.765466Z" fill="#0B1547"/>
<path d="M80.59 0.76522C80.59 0.573896 80.8572 0.395767 81.3915 0.23743C82.081 0.0603305 82.7914 -0.0195916 83.5025 -7.60885e-05C84.2542 -0.0537456 85.0087 0.0518602 85.7178 0.310001C86.1022 0.514519 86.2977 0.719038 86.2977 0.910362V58.2218C86.2977 58.4197 86.0045 58.5912 85.4051 58.7364C84.7318 58.8904 84.0429 58.9634 83.3527 58.9541C82.7988 58.9541 82.3362 58.9541 81.9713 58.9013C81.6836 58.8754 81.3982 58.8268 81.1178 58.7562C80.9622 58.7186 80.8186 58.6414 80.7008 58.5319C80.6263 58.4465 80.5867 58.3356 80.59 58.2218V0.76522Z" fill="#0B1547"/>
<path d="M95.7841 58.9542C95.0279 58.9931 94.2699 58.9309 93.5297 58.7695C93.1649 58.6507 92.9824 58.466 92.9824 58.2219V38.1263C92.9824 37.9019 93.2626 37.7238 93.8229 37.5787C94.5121 37.4129 95.2194 37.3375 95.9275 37.3544C96.996 37.3544 97.7258 37.5919 98.1298 38.0669C98.5159 38.5369 98.7441 39.1192 98.7813 39.7294C99.9699 39.009 101.238 38.4332 102.56 38.0141C104.038 37.5592 105.577 37.3367 107.121 37.3544C108.571 37.3134 110.017 37.5369 111.389 38.0141C112.417 38.386 113.343 38.9986 114.093 39.802C114.77 40.5524 115.258 41.458 115.513 42.4409C115.785 43.494 115.919 44.5787 115.911 45.6671V58.2021C115.911 58.4264 115.644 58.5979 115.116 58.7365C114.422 58.8845 113.714 58.9509 113.005 58.9344C111.089 58.9344 110.132 58.6903 110.132 58.2021V45.3438C110.137 44.4488 110.089 43.5544 109.988 42.6653C109.913 41.9438 109.736 41.2371 109.46 40.5673C109.242 40.0316 108.892 39.5615 108.444 39.2016C107.974 38.8597 107.406 38.6857 106.828 38.7068C106.101 38.7264 105.387 38.9065 104.737 39.2346C103.955 39.6164 103.213 40.0761 102.521 40.6069C101.771 41.1706 101.065 41.7926 100.41 42.4673C99.7862 43.0918 99.1988 43.7527 98.651 44.4465V58.2219C98.651 58.4462 98.3839 58.6177 97.8496 58.7563C97.1708 58.9016 96.4778 58.968 95.7841 58.9542Z" fill="#0B1547"/>
<path d="M122.111 0.78169C122.111 0.563976 122.385 0.379249 122.945 0.234107C123.635 0.074121 124.342 0.00099675 125.05 0.0163936C125.802 -0.0437516 126.558 0.062042 127.265 0.32647C127.63 0.530989 127.812 0.735508 127.812 0.926832V48.6853C128.945 47.8896 130.032 47.0306 131.07 46.1123C132.158 45.1491 133.253 44.1331 134.328 43.1567C135.403 42.1802 136.511 41.1774 137.586 40.201C138.62 39.2787 139.708 38.4195 140.844 37.628L141.495 37.2652C142.004 37.3114 142.499 37.3708 142.981 37.4301C143.463 37.4895 143.893 37.5555 144.284 37.628C144.579 37.6843 144.87 37.757 145.157 37.8458C145.372 37.9183 145.483 37.9909 145.483 38.0701C145.208 38.2002 144.946 38.357 144.701 38.5385C144.18 38.8816 143.509 39.3302 142.681 39.858L139.866 41.758C138.811 42.4639 137.755 43.1764 136.687 43.9088L133.618 45.9869C132.634 46.6467 131.794 47.214 131.09 47.7022L129.748 48.6127C130.301 48.6127 130.888 48.5731 131.507 48.5599H133.305C134.966 48.5343 136.625 48.6379 138.27 48.87C139.287 48.9947 140.268 49.3245 141.156 49.8398C141.784 50.2128 142.26 50.7998 142.499 51.4957C142.735 52.2687 142.847 53.075 142.831 53.884C142.831 54.2534 142.831 54.6361 142.831 55.0385C142.831 55.441 142.831 55.8566 142.772 56.292C142.714 56.7275 142.701 57.4136 142.701 58.0074C142.701 58.6011 142.668 59.2477 142.668 59.881C142.652 60.6949 142.718 61.5083 142.864 62.3088C143 62.929 143.222 63.2655 143.515 63.3116C143.437 63.3116 143.424 63.2193 143.456 63.1137C143.512 62.9701 143.587 62.8347 143.678 62.7113C143.782 62.5529 143.906 62.3814 144.036 62.1967C144.167 62.012 144.31 61.8404 144.46 61.6689H144.421C144.513 61.5544 144.623 61.4563 144.747 61.3786C144.949 61.2575 145.169 61.1706 145.398 61.1213C145.762 61.0361 146.133 60.9809 146.506 60.9564C146.962 60.9234 147.561 60.9036 148.285 60.9036C148.597 61.1015 148.904 61.2731 149.197 61.4314C149.49 61.5897 149.653 61.6491 149.705 61.5963C149.664 61.8215 149.577 62.0353 149.449 62.224C149.321 62.4127 149.155 62.572 148.962 62.6915C148.449 63.0847 147.888 63.4106 147.294 63.6613C146.633 63.9353 145.951 64.1559 145.255 64.321C144.661 64.4781 144.051 64.5644 143.437 64.5783C142.3 64.6153 141.165 64.4546 140.081 64.1033C139.323 63.8545 138.637 63.4219 138.081 62.8432C137.609 62.3285 137.277 61.6989 137.117 61.0158C136.947 60.3186 136.861 59.603 136.863 58.8848C136.863 57.9876 136.895 57.1365 136.973 56.3316C136.973 55.9886 137.019 55.6323 137.045 55.2562C137.071 54.8802 137.078 54.5437 137.078 54.2534C137.096 53.4395 137.03 52.6258 136.882 51.8256C136.796 51.3416 136.589 50.8877 136.283 50.5061C136.012 50.2124 135.652 50.0196 135.26 49.9585C134.792 49.8826 134.319 49.8473 133.846 49.853L127.812 50.1763V58.2383C127.812 58.4626 127.545 58.6341 127.011 58.7726C126.32 58.921 125.613 58.9874 124.907 58.9706C124.163 59.0071 123.417 58.9405 122.691 58.7726C122.3 58.6341 122.111 58.4626 122.111 58.2383V0.78169Z" fill="#0B1547"/>
<path d="M152.835 48.4843C152.84 49.8255 153.038 51.1589 153.422 52.4427C153.733 53.5205 154.242 54.5297 154.92 55.4181C155.547 56.2242 156.35 56.8723 157.266 57.3116C158.213 57.7617 159.249 57.9873 160.295 57.9713C160.946 57.9712 161.591 57.8597 162.205 57.6414C162.811 57.4267 163.396 57.1527 163.951 56.8233C164.477 56.5043 164.986 56.1563 165.475 55.781C165.945 55.4181 166.368 55.1212 166.726 54.7979L167.13 54.4681C167.268 54.3587 167.422 54.2719 167.586 54.2108C167.797 54.1293 168.015 54.0696 168.238 54.0327C168.606 53.9731 168.979 53.9466 169.352 53.9535C169.99 53.9457 170.627 54.0009 171.255 54.1184C171.776 54.2306 172.063 54.3559 172.108 54.5011C172.063 54.4285 171.932 54.5011 171.73 54.6858L171.02 55.3455C170.354 56.0204 169.618 56.6199 168.824 57.1334C168.042 57.6317 167.207 58.041 166.335 58.3539C165.392 58.6947 164.416 58.9335 163.423 59.0665C162.28 59.2184 161.129 59.2911 159.976 59.2842C158.142 59.313 156.314 59.048 154.562 58.4991C153.064 58.0356 151.672 57.2729 150.47 56.256C149.348 55.3081 148.456 54.1117 147.864 52.7594C147.259 51.3302 146.957 49.7883 146.978 48.2336C146.964 46.7121 147.298 45.2082 147.955 43.8397C148.606 42.4924 149.534 41.3022 150.678 40.3497C151.943 39.3433 153.382 38.5828 154.92 38.1066C156.615 37.5444 158.389 37.2659 160.172 37.2819C163.353 37.2835 166.445 38.3479 168.968 40.3101C170.093 41.1917 171.034 42.2904 171.737 43.5428C172.404 44.7527 172.754 46.1155 172.753 47.5012C172.753 48.1346 171.687 48.4513 169.554 48.4513L152.835 48.4843ZM167.085 47.1648C166.951 46.0022 166.669 44.8622 166.244 43.7737C165.869 42.7941 165.346 41.8794 164.694 41.0622C164.109 40.322 163.379 39.7131 162.55 39.2743C161.748 38.8401 160.853 38.6135 159.944 38.6146C159.055 38.6115 158.18 38.8387 157.403 39.2743C156.58 39.7292 155.852 40.3408 155.259 41.0754C154.6 41.8888 154.066 42.7986 153.676 43.7737C153.246 44.8432 152.959 45.9658 152.822 47.112L167.085 47.1648Z" fill="#0B1547"/>
<path d="M191.029 58.189C189.221 58.9503 187.28 59.334 185.322 59.3171C183.667 59.3814 182.019 59.0774 180.494 58.4265C179.351 57.9086 178.361 57.0993 177.62 56.0778C176.932 55.0929 176.467 53.9667 176.258 52.7791C176.028 51.5348 175.912 50.2715 175.913 49.0054V38.1264C175.913 37.902 176.193 37.7239 176.747 37.5788C177.438 37.4134 178.148 37.338 178.858 37.3545C179.343 37.3492 179.828 37.369 180.311 37.4138C180.595 37.4327 180.875 37.4881 181.145 37.5788C181.295 37.6224 181.428 37.7096 181.53 37.8295C181.586 37.9182 181.618 38.0208 181.621 38.1264V49.1044C181.621 50.127 181.66 51.1628 181.745 52.225C181.815 53.2028 181.992 54.1697 182.272 55.108C182.495 55.8911 182.879 56.6174 183.4 57.239C183.641 57.5196 183.943 57.7409 184.281 57.8861C184.62 58.0312 184.987 58.0965 185.354 58.0768C185.881 58.0689 186.405 58.0026 186.918 57.8789C187.502 57.7459 188.07 57.549 188.612 57.2917C189.144 57.0465 189.643 56.7339 190.098 56.3615C190.524 56.0299 190.856 55.5908 191.062 55.0882V38.1264C191.062 37.9284 191.349 37.7503 191.915 37.592C192.586 37.4212 193.276 37.3414 193.968 37.3545C194.725 37.3152 195.484 37.384 196.222 37.559C196.587 37.6909 196.77 37.8823 196.77 38.1264V52.8649L197.675 52.6802C197.988 52.8715 198.327 53.0562 198.62 53.2278C198.846 53.3634 199.093 53.4614 199.35 53.518L198.77 53.8479C198.485 54.0055 198.211 54.1818 197.949 54.3757C197.681 54.5783 197.426 54.7987 197.187 55.0354C196.999 55.1883 196.856 55.3886 196.77 55.616V67.4385C196.798 68.2424 196.625 69.0405 196.266 69.7582C195.907 70.4758 195.374 71.0896 194.717 71.5421C193.349 72.5251 191.459 73.0199 189.062 73.0199C188.369 73.0292 187.677 72.9917 186.99 72.9077C186.481 72.8352 186.227 72.6768 186.227 72.4393C186.228 72.3425 186.261 72.2488 186.32 72.1725C186.379 72.0963 186.461 72.0416 186.553 72.0171C186.825 71.9211 187.107 71.859 187.394 71.8324C187.762 71.8023 188.133 71.8023 188.501 71.8324L189.648 71.9049H189.681C189.993 71.9049 190.247 71.7004 190.443 71.298C190.66 70.8199 190.801 70.3099 190.86 69.7872C190.95 69.1308 191.006 68.4702 191.029 67.808C191.029 67.0757 191.062 66.3829 191.062 65.7298L191.029 58.189ZM199.5 53.4455C199.49 53.4571 199.478 53.4666 199.465 53.4734C199.451 53.4802 199.436 53.4842 199.421 53.4851H199.369C199.353 53.4917 199.334 53.4917 199.317 53.4851C199.434 53.5708 199.5 53.5444 199.5 53.4389V53.4455Z" fill="#0B1547"/>
</g>
<defs>
<clipPath id="clip0_254_2733">
<rect width="199" height="73" fill="white" transform="translate(0.5)"/>
</clipPath>
</defs>
</svg>
