<svg width="58" height="40" viewBox="0 0 58 40" fill="none" xmlns="http://www.w3.org/2000/svg">
<rect x="0.5" y="0.5" width="57" height="39" rx="3.5" fill="white" stroke="#F3F3F3"/>
<path d="M34.3101 28.977H23.959V10.5127H34.3101V28.977Z" fill="#6C6BBD"/>
<path d="M24.6223 19.7425C24.6223 15.9969 26.3891 12.6605 29.1406 10.5103C27.1285 8.93806 24.5892 7.99962 21.8294 7.99962C15.2961 7.99962 10 13.257 10 19.7425C10 26.228 15.2961 31.4854 21.8294 31.4854C24.5892 31.4854 27.1285 30.5469 29.1406 28.9746C26.3891 26.8245 24.6223 23.488 24.6223 19.7425" fill="#EB001B"/>
<path d="M48.2702 19.7425C48.2702 26.228 42.9742 31.4854 36.4408 31.4854C33.6811 31.4854 31.1417 30.5469 29.1289 28.9746C31.8811 26.8245 33.648 23.488 33.648 19.7425C33.648 15.9969 31.8811 12.6605 29.1289 10.5103C31.1417 8.93806 33.6811 7.99962 36.4408 7.99962C42.9742 7.99962 48.2702 13.257 48.2702 19.7425" fill="#0099DF"/>
</svg>
