<svg width="16" height="16" viewBox="0 0 16 16" fill="none" xmlns="http://www.w3.org/2000/svg">
<g clip-path="url(#clip0_254_2283)">
<path d="M10.367 8.66634C10.867 8.66634 11.307 8.39301 11.5337 7.97967L13.9203 3.65301C14.167 3.21301 13.847 2.66634 13.3403 2.66634H3.47366L2.84699 1.33301H0.666992V2.66634H2.00033L4.40033 7.72634L3.50033 9.35301C3.01366 10.2463 3.65366 11.333 4.66699 11.333H12.667V9.99967H4.66699L5.40033 8.66634H10.367ZM4.10699 3.99967H12.207L10.367 7.33301H5.68699L4.10699 3.99967ZM4.66699 11.9997C3.93366 11.9997 3.34033 12.5997 3.34033 13.333C3.34033 14.0663 3.93366 14.6663 4.66699 14.6663C5.40033 14.6663 6.00033 14.0663 6.00033 13.333C6.00033 12.5997 5.40033 11.9997 4.66699 11.9997ZM11.3337 11.9997C10.6003 11.9997 10.007 12.5997 10.007 13.333C10.007 14.0663 10.6003 14.6663 11.3337 14.6663C12.067 14.6663 12.667 14.0663 12.667 13.333C12.667 12.5997 12.067 11.9997 11.3337 11.9997Z" fill="white"/>
</g>
<defs>
<clipPath id="clip0_254_2283">
<rect width="16" height="16" fill="white"/>
</clipPath>
</defs>
</svg>
