<svg width="58" height="40" viewBox="0 0 58 40" fill="none" xmlns="http://www.w3.org/2000/svg">
<rect x="0.5" y="0.5" width="57" height="39" rx="3.5" fill="white" stroke="#F3F3F3"/>
<path d="M25.7521 27.4333H21.8906L24.3059 13.4326H28.1671L25.7521 27.4333Z" fill="#15195A"/>
<path d="M39.7494 13.7748C38.9878 13.4915 37.7797 13.1787 36.286 13.1787C32.4726 13.1787 29.7873 15.0851 29.7708 17.8106C29.7392 19.8215 31.6934 20.9384 33.1551 21.6089C34.6491 22.2941 35.1569 22.7413 35.1569 23.352C35.1417 24.29 33.9497 24.7223 32.8379 24.7223C31.2963 24.7223 30.4702 24.4994 29.2148 23.9776L28.7064 23.7539L28.166 26.8967C29.0717 27.2835 30.7403 27.6268 32.4726 27.6419C36.5244 27.6419 39.1622 25.765 39.1934 22.8605C39.2088 21.2667 38.1769 20.0454 35.9521 19.0475C34.6015 18.4069 33.7744 17.9749 33.7744 17.3195C33.7903 16.7236 34.474 16.1133 35.9986 16.1133C37.2539 16.0834 38.1763 16.3663 38.875 16.6494L39.2243 16.7981L39.7494 13.7748V13.7748V13.7748Z" fill="#15195A"/>
<path fill-rule="evenodd" clip-rule="evenodd" d="M46.6622 13.4326H49.6491L52.7643 27.4331H49.189C49.189 27.4331 48.8391 25.8245 48.7282 25.3329H43.7704C43.627 25.7051 42.9599 27.4331 42.9599 27.4331H38.9082L44.6439 14.5943C45.0413 13.6856 45.7411 13.4326 46.6622 13.4326ZM46.4242 18.5561C46.4242 18.5561 45.2006 21.669 44.8826 22.4734H48.0922C47.9334 21.7734 47.2021 18.4221 47.2021 18.4221L46.9323 17.2157C46.8186 17.5263 46.6543 17.9534 46.5435 18.2415C46.4683 18.4368 46.4178 18.5682 46.4242 18.5561Z" fill="#15195A"/>
<path fill-rule="evenodd" clip-rule="evenodd" d="M5.15926 13.4326H11.372C12.2141 13.4621 12.8974 13.7153 13.1198 14.6095L14.47 21.0423C14.4701 21.0427 14.4702 21.0431 14.4704 21.0435L14.8836 22.9798L18.6653 13.4326H22.7485L16.6789 27.4185H12.5955L9.15373 15.2531C7.96624 14.6022 6.61097 14.0788 5.0957 13.7155L5.15926 13.4326Z" fill="#15195A"/>
</svg>
