<svg width="32" height="32" viewBox="0 0 32 32" fill="none" xmlns="http://www.w3.org/2000/svg">
<rect width="32" height="32" rx="16" fill="#AA767C"/>
<path d="M22.299 9.69292C20.6235 8.02328 18.3895 7.0957 16.0315 7.0957C11.1292 7.0957 7.15776 11.0534 7.15776 15.9386C7.15776 17.4846 7.59214 19.0306 8.33678 20.3292L7.0957 24.9052L11.8118 23.6685C13.115 24.3487 14.5422 24.7197 16.0315 24.7197C20.9338 24.7197 24.9052 20.762 24.9052 15.8768C24.8432 13.5888 23.9744 11.3626 22.299 9.69292ZM20.3132 19.0924C20.1271 19.5871 19.2583 20.0818 18.8239 20.1437C18.4516 20.2055 17.9552 20.2055 17.4587 20.0818C17.1485 19.9581 16.7141 19.8345 16.2177 19.5871C13.9837 18.6595 12.5565 16.4333 12.4324 16.2478C12.3082 16.1241 11.5015 15.0729 11.5015 13.9598C11.5015 12.8467 12.06 12.352 12.2462 12.1046C12.4324 11.8573 12.6806 11.8573 12.8667 11.8573C12.9908 11.8573 13.177 11.8573 13.3011 11.8573C13.4252 11.8573 13.6114 11.7954 13.7975 12.2283C13.9837 12.6612 14.4181 13.7743 14.4801 13.8361C14.5422 13.9598 14.5422 14.0835 14.4801 14.2071C14.4181 14.3308 14.356 14.4545 14.2319 14.5782C14.1078 14.7019 13.9837 14.8874 13.9217 14.9492C13.7975 15.0729 13.6734 15.1966 13.7975 15.3821C13.9217 15.6294 14.356 16.3097 15.0386 16.928C15.9074 17.6701 16.59 17.9175 16.8382 18.0411C17.0864 18.1648 17.2105 18.103 17.3346 17.9793C17.4587 17.8556 17.8931 17.3609 18.0172 17.1136C18.1413 16.8662 18.3275 16.928 18.5137 16.9899C18.6998 17.0517 19.8168 17.6083 20.003 17.7319C20.2512 17.8556 20.3753 17.9175 20.4373 17.9793C20.4994 18.1648 20.4994 18.5977 20.3132 19.0924Z" fill="white"/>
</svg>
